<svg width="24" height="24" viewBox="0 0 24 24" fill="none" xmlns="http://www.w3.org/2000/svg">
<g clip-path="url(#clip0_3783_161)">
<path d="M11.939 12.0586L4.07031 20.3934C4.15868 20.71 4.31747 21.002 4.53456 21.247C4.75164 21.4921 5.02127 21.6837 5.32283 21.8073C5.62439 21.9308 5.94989 21.983 6.27447 21.9599C6.59904 21.9367 6.91409 21.8389 7.19552 21.6738L16.0493 16.5758L11.939 12.0586Z" fill="#EA4335"/>
<path d="M19.8961 10.641L16.0674 8.42383L11.7578 12.2473L16.085 16.5629L19.8845 14.3696C20.2211 14.1914 20.503 13.9234 20.6997 13.5948C20.8964 13.2662 21.0004 12.8894 21.0004 12.5052C21.0004 12.1211 20.8964 11.7443 20.6997 11.4157C20.503 11.087 20.2211 10.8191 19.8845 10.6409H19.8962L19.8961 10.641Z" fill="#FBBC04"/>
<path d="M4.07041 4.57617C4.02285 4.75394 3.99917 4.93738 4.00002 5.12153V19.8467C4.00052 20.0308 4.02417 20.214 4.07041 20.3921L12.2088 12.2707L4.07041 4.57617Z" fill="#4285F4"/>
<path d="M11.9976 12.4848L16.0669 8.42413L7.22487 3.30233C6.8922 3.10535 6.51383 3.00103 6.12831 3C5.17159 2.99812 4.33049 3.6401 4.07031 4.57096L11.9976 12.4848Z" fill="#34A853"/>
</g>
<defs>
<clipPath id="clip0_3783_161">
<rect width="17" height="19" fill="white" transform="translate(4 3)"/>
</clipPath>
</defs>
</svg>
